<?xml version="1.0" standalone="no"?>
<!DOCTYPE svg PUBLIC "-//W3C//DTD SVG 20010904//EN"
 "http://www.w3.org/TR/2001/REC-SVG-20010904/DTD/svg10.dtd">
<svg version="1.0" xmlns="http://www.w3.org/2000/svg"
 width="400.000000pt" height="400.000000pt" viewBox="0 0 400.000000 400.000000"
 preserveAspectRatio="xMidYMid meet">
<metadata>
Created by potrace 1.14, written by Peter Selinger 2001-2017
</metadata>
<g transform="translate(0.000000,400.000000) scale(0.100000,-0.100000)"
fill="#000000" stroke="none">
<path d="M935 2336 c-42 -18 -102 -88 -114 -133 -26 -91 -7 -139 93 -241 213
-220 508 -385 805 -453 128 -29 339 -36 476 -15 322 50 675 238 906 483 53 57
69 81 79 121 30 128 -68 252 -199 252 -69 0 -98 -13 -161 -74 -208 -200 -440
-328 -664 -367 -101 -17 -312 -7 -406 21 -175 50 -374 168 -522 307 -49 46
-104 91 -123 99 -42 17 -130 18 -170 0z"/>
</g>
</svg>
